<svg xmlns="http://www.w3.org/2000/svg" width="51" height="51" viewBox="0 0 51 51">
  <g id="twitter_icon_with_bg" transform="translate(-965 -1923)">
    <circle id="Ellipse_274" data-name="Ellipse 274" cx="25.5" cy="25.5" r="25.5" transform="translate(965 1923)" fill="#00abec"/>
    <path id="twitter_icon" d="M26.323,8.194a12.006,12.006,0,0,0,3.014-3.122h0a12.561,12.561,0,0,1-3.465.95A5.982,5.982,0,0,0,28.518,2.7,12.034,12.034,0,0,1,24.7,4.153,6.014,6.014,0,0,0,14.3,8.265a6.193,6.193,0,0,0,.139,1.372,17.028,17.028,0,0,1-12.4-6.292,6.014,6.014,0,0,0,1.848,8.038,5.945,5.945,0,0,1-2.717-.741v.066a6.043,6.043,0,0,0,4.819,5.91,5.981,5.981,0,0,1-1.577.2,5.308,5.308,0,0,1-1.138-.1A6.074,6.074,0,0,0,8.9,20.9a12.09,12.09,0,0,1-7.458,2.565A11.375,11.375,0,0,1,0,23.387a16.937,16.937,0,0,0,9.226,2.7,17,17,0,0,0,17.1-17.892Z" transform="translate(976.332 1934.582)" fill="#fff"/>
  </g>
</svg>
