<svg xmlns="http://www.w3.org/2000/svg" width="51" height="51" viewBox="0 0 51 51">
  <g id="Whatsapp_icon_with_bg" transform="translate(-904 -1923)">
    <circle id="Ellipse_273" data-name="Ellipse 273" cx="25.5" cy="25.5" r="25.5" transform="translate(904 1923)" fill="#25d366"/>
    <g id="whatsapp_icon" transform="translate(914.373 1934)">
      <path id="XMLID_469_" d="M95.071,89.037c-.058-.028-2.224-1.094-2.609-1.233a1.5,1.5,0,0,0-.5-.112.858.858,0,0,0-.73.432c-.216.322-.871,1.087-1.074,1.316-.026.03-.063.066-.084.066s-.355-.138-.456-.182a11.4,11.4,0,0,1-4.329-3.845.239.239,0,0,1-.036-.086.7.7,0,0,1,.127-.15c.118-.117.246-.271.369-.419.059-.071.117-.141.175-.208a2.333,2.333,0,0,0,.352-.558l.049-.1a1.01,1.01,0,0,0-.029-.951c-.051-.1-.966-2.31-1.063-2.541-.234-.56-.543-.82-.972-.82-.04,0,0,0-.167.007a5.191,5.191,0,0,0-1.8.463,3.77,3.77,0,0,0-1.4,3.207,6.913,6.913,0,0,0,1.5,3.806c.011.015.032.045.062.089A14.109,14.109,0,0,0,88.5,92.474a9.842,9.842,0,0,0,3.655.935h0a5.712,5.712,0,0,0,.595-.035l.106-.01a3.842,3.842,0,0,0,2.679-1.9,3,3,0,0,0,.171-1.973A1.367,1.367,0,0,0,95.071,89.037Z" transform="translate(-73.087 -71.965)" fill="#fff"/>
      <path id="XMLID_470_" d="M15.118,0A14.554,14.554,0,0,0,.526,14.482a14.376,14.376,0,0,0,2,7.324L.021,29.2a.386.386,0,0,0,.482.492l7.709-2.45a14.615,14.615,0,0,0,21.5-12.759A14.553,14.553,0,0,0,15.118,0Zm0,25.947a11.56,11.56,0,0,1-6.36-1.9.386.386,0,0,0-.329-.045L4.568,25.233l1.247-3.678a.386.386,0,0,0-.054-.352,11.308,11.308,0,0,1-2.2-6.721A11.558,11.558,0,1,1,15.118,25.947Z" transform="translate(0)" fill="#fff"/>
    </g>
  </g>
</svg>
