<svg id="Group_485" data-name="Group 485" xmlns="http://www.w3.org/2000/svg" xmlns:xlink="http://www.w3.org/1999/xlink" width="375.499" height="667" viewBox="0 0 375.499 667">
  <defs>
    <linearGradient id="linear-gradient" x1="0.014" y1="0.05" x2="0.98" y2="0.961" gradientUnits="objectBoundingBox">
      <stop offset="0" stop-color="#efd6c4"/>
      <stop offset="0.406" stop-color="#e8c5ae"/>
      <stop offset="1" stop-color="#dead8d"/>
    </linearGradient>
  </defs>
  <rect id="Rectangle_250" data-name="Rectangle 250" width="375.498" height="666.593" fill="url(#linear-gradient)"/>
  <path id="Intersection_3" data-name="Intersection 3" d="M0,47.825a9.02,9.02,0,0,1,1.269-1.446,8.64,8.64,0,0,1,2.325-1.566,1.546,1.546,0,0,0-.175-.027h0c-.059-.007-.12-.017-.175-.027A9.509,9.509,0,0,1,4.8,43.723c-.219.089-.447.178-.649.26L4.109,44c-.167.068-.342.137-.509.2a21.114,21.114,0,0,1,5.21-2.352,4.831,4.831,0,0,0,.633-.314,3.033,3.033,0,0,1,1.248-.644,24.74,24.74,0,0,1,5.932-3.436,6.92,6.92,0,0,1,2-1.269l.034-.021c-.105.018-.212.031-.311.041s-.205.027-.312.045a3.245,3.245,0,0,1,.82-.376,3.822,3.822,0,0,0,.667-.284c-.075-.034-.15-.068-.226-.1h0c-.078-.034-.164-.071-.246-.112.879-.64,1.761-1.347,2.612-2.034a34.27,34.27,0,0,1,5-3.566c.044-.034.089-.062.133-.092a1.475,1.475,0,0,0,.144-.1,17.247,17.247,0,0,1,2.527-3.159c-.188.134-.38.273-.548.394l-.021.014c-.212.153-.431.311-.649.465A15.889,15.889,0,0,1,30.5,24.881,22.54,22.54,0,0,1,34.359,22.2,9.822,9.822,0,0,1,38,20.926c.485-.451.979-.91,1.46-1.361l.28-.26c3.781-3.508,7.686-7.132,11.43-10.79a.855.855,0,0,1,.533-.283.21.21,0,0,1,.1.021.114.114,0,0,1,.062.089.648.648,0,0,1-.232.451c-2.991,3.306-6.164,6.451-9.156,9.388,2.64-2.034,5.706-4.42,8.664-6.967l1.042-1a8.52,8.52,0,0,1,1.111-.886c.476-.42.958-.841,1.423-1.248l.058-.055C57.06,6.012,59.26,4.08,61.443,2v1.5c-.729.649-1.454,1.286-2.185,1.914-.492.42-.984.844-1.46,1.251-.526.448-1.066.913-1.6,1.371a.376.376,0,0,1,.119.085.675.675,0,0,1,.093.616c1.162-.958,2.362-1.918,3.569-2.849l.03-.034h0c.469-.5.944-1.013,1.425-1.523V29.295c-2.881,2.68-5.53,5.414-8.3,8.277v0Q51.575,39.191,49.9,40.9c-2.206,2.244-4.521,4.517-7.06,6.924Zm14.356-2.26c-.294.208-.6.427-.9.639l-.007,0c-.718.516-1.463,1.05-2.185,1.477a8.709,8.709,0,0,1,1.993-.39,8.125,8.125,0,0,1,1.013-1c.987-.82,2-1.61,2.994-2.355-.064-.01-.1-.03-.109-.058-.017-.059.062-.141.13-.212.024-.027.048-.052.065-.072.058-.071.126-.14.188-.205l.011-.01c.041-.045.082-.086.12-.131C16.514,44.085,15.344,44.888,14.356,45.565ZM16.8,39.254c-.157.078-.311.16-.454.239a44.6,44.6,0,0,1-4.6,3.043l-.007,0c-.509.312-1.039.629-1.559.954-.246.469-.523.94-.827,1.408a36.142,36.142,0,0,1,4.612-3.1c1.039-.756,2.071-1.528,2.946-2.185l-.071.01c-.045.007-.089.014-.137.018.185-.106.365-.22.547-.329l.03-.021c.086-.048.168-.1.25-.146l.082-.062ZM52.106,7.78c-.037-.065.031-.191.158-.3,2.9-2.308,5.919-4.77,9.179-7.479V.338c-3.264,2.72-6.241,5.15-9.049,7.381a.379.379,0,0,1-.216.1A.073.073,0,0,1,52.106,7.78Z" transform="translate(314.055 618.762)" fill="#fbe5bc" opacity="0.7"/>
  <path id="Intersection_2" data-name="Intersection 2" d="M0,46.287c2.265-1.815,5.017-3.311,6.9-3.462,4.419-4.107,8.862-8.2,13.172-12.408.216-.223.494-.332.627-.264s.052.318-.171.537c-2.915,3.225-6.026,6.317-9.157,9.391,2.919-2.247,5.82-4.516,8.667-6.968l1.038-1a8.995,8.995,0,0,1,1.117-.887c3.6-3.173,7.064-6.136,10.5-9.641,2.93-3,5.457-5.663,8.291-8.749A163.1,163.1,0,0,1,52.875.681c.544-.541,1.25-.822,1.555-.609s.106.818-.441,1.359c-8.294,8.814-16.27,17.657-25.824,25.876-1.031.887-2.045,1.75-3.056,2.62a.368.368,0,0,1,.12.086.671.671,0,0,1,.092.616c1.169-.962,2.357-1.915,3.57-2.847a90.949,90.949,0,0,1,9.355-9.089c2.429-1.942,4.816-3.5,7.229-5.111,2.583-2.579,5.115-5.2,7.746-7.776a.407.407,0,0,1,.318-.175c.086.018.072.123-.023.24-1.6,2.007-3.323,3.978-5.084,5.937.455-.106.832-.051,1.017.206a1.214,1.214,0,0,1-.082,1.178l1.35-1.168c.285-.232.583-.329.683-.191s-.021.425-.288.654q-2.733,2.379-5.471,4.748-3.083,3.083-6.222,6.111a1.863,1.863,0,0,1,1.151.031l.989-.911A190.013,190.013,0,0,1,59.524,4.911c.119-.109.264-.153.318-.1s0,.2-.116.28q-2.919,2.487-5.711,5.084h.01c.106-.034.179.014.131.131a.6.6,0,0,1-.3.267c-.119.038-.168-.03-.13-.127-3.464,3.231-6.776,6.581-9.948,10,3.179-2.915,6.379-5.811,9.7-8.558.288-.388.583-.761.874-1.145a.435.435,0,0,1,.325-.161c.072.021.048.141-.037.243s-.168.209-.25.315c.63-.518,1.312-.7,1.555-.387s-.089,1.024-.732,1.572q-2.473,2.333-5,4.6c-.172.182-.336.363-.5.537l-.425.613q4.106-3.3,8.235-6.546c.223-.2.49-.288.586-.2s0,.349-.229.551c-4.234,4.484-8.644,8.894-13.155,13.221-1.137,1.809-2.274,3.628-3.449,5.461.205-.168.407-.34.609-.515,5.088-4.5,8.273-9.6,12.964-14.22.112-.124.257-.168.318-.131s.021.168-.1.277c-2.251,2.306-4.057,4.684-6.17,7.1-1.751,2-3.419,3.9-4.957,5.865,3.645-3.43,6.755-7.17,10.257-10.709a.96.96,0,0,1,.476-.326.19.19,0,0,1,.027-.153,15.11,15.11,0,0,1,1.2-1.651.416.416,0,0,1,.325-.192c.093,0,.079.11-.007.236a11.536,11.536,0,0,0-1.134,1.573.537.537,0,0,1-.24.194c.106.065.082.23-.068.429-2.946,3.919-6.557,7.636-10.021,11.4a.572.572,0,0,1,.023.35A2.711,2.711,0,0,1,43.7,31.582l-.466.312c-1.784,1.353-3.545,2.724-5.334,4.063a6.49,6.49,0,0,1-1,1.22c-1.2,1.556-2.408,3.087-3.706,4.591a.361.361,0,0,1,.339.086c.137.216-.079.661-.483,1.007l-.582.541c.617-.462,1.236-.925,1.86-1.38a1.583,1.583,0,0,1,.261-.172q.955-.828,1.908-1.713A169.591,169.591,0,0,0,51.271,23.98a.554.554,0,0,1,.318-.246c.093,0,.141.071.065.185-2.491,3.909-4.266,7.722-7.489,11.689-3.826,4.724-7.708,9.276-11.881,13.837-4.816,4.265-8.866,8.667-13.477,13.356C12.6,69.118,6.422,74.724,0,80.494ZM21.015,29.681c-.038-.065.034-.192.157-.3,3.775-3.008,7.5-6.063,11.209-9.174.113-.1.243-.141.288-.079s-.023.192-.147.295c-3.706,3.114-7.444,6.193-11.22,9.2a.4.4,0,0,1-.219.093A.073.073,0,0,1,21.015,29.681ZM53.183,11.16a.528.528,0,0,1,.3-.264c.11-.038.172.031.131.13a.57.57,0,0,1-.3.268.391.391,0,0,1-.072.014C53.166,11.308,53.146,11.253,53.183,11.16Z" transform="translate(0.501 569.139)" fill="#fbe5bc"/>
  <path id="Intersection_4" data-name="Intersection 4" d="M22.58,64.766a2.2,2.2,0,0,1-1.375-.411,2.266,2.266,0,0,1-.425-2.722c-.164.133-.324.263-.488.39l-.872.489a4.309,4.309,0,0,1-2.395.633l-.934-.034c-1.475-.322-3.263-.127-4.645-.6l-.178-.469-.223.01A2.326,2.326,0,0,1,9.364,61.8l-.325-.473a4.132,4.132,0,0,1-.513-1.983A1.27,1.27,0,0,1,8.2,58.7a1.794,1.794,0,0,1-1.42-1.259c-.294.027-.424-.191-.3-.485a1,1,0,0,1,.194-.287,3.412,3.412,0,0,0-.5-.048c-.216.119-.349.178-.349.178-.555.339-.555.339-1.04.622a2.957,2.957,0,0,1-.9.13c-1.063-.44-1.063-.44-1.286-.831a1.1,1.1,0,0,1,0-.16c-.417.16-.444.171-.564.212a1.19,1.19,0,0,1-.264,0c-.167-.171-.167-.171-.276-.2a.721.721,0,0,1-.13-.126c.014-.353.014-.353-.034-.414a.823.823,0,0,1,.021-.185l.246-.366-.147-.014.178-.037,0,.023-.014.021.841.082-.037-.243.287.124L2.479,55.3l.328-.075-.407.048a3.984,3.984,0,0,0,.814-.581,1.867,1.867,0,0,0,.417-.4.66.66,0,0,1-.105-.089c.643-.414.643-.414,1.278-.807a2.034,2.034,0,0,1,.243.017.445.445,0,0,1,.216-.3l.324-.216.041-.082L5.615,52.8l.172-.3.034-.068.745-1.316a6.438,6.438,0,0,1,.571-.322c-.079.014-.147.024-.223.031a.19.19,0,0,1-.16-.1c-.045-.055-.075-.112-.106-.1a23.547,23.547,0,0,0-3.108,1.71,1.454,1.454,0,0,0-.145.373c-.055.027-.105.055-.157.079-.023.044-.044.085-.062.126l.2-.071A.863.863,0,0,0,3.389,53c.024-.065.052-.127.079-.188l-.093.031a1.055,1.055,0,0,1,.021-.134c.048-.023.1-.048.141-.071-.021.058-.044.116-.068.174.67-.235,1.341-.482,2.021-.752.185-.086.339-.038.349.119a.55.55,0,0,1-.332.425c-.875.447-1.744.991-2.616,1.487a2.463,2.463,0,0,1-.482.479c-.69.53-1.474.612-1.747.186-.232-.218-.572-.375-.66-.67v-.517a3.493,3.493,0,0,1,.831-1.629l-.257.075A3.75,3.75,0,0,1,0,52.156V47.539a5.218,5.218,0,0,1,1.453-.757c-.1-.034-.212-.059-.314-.093a6.307,6.307,0,0,1,1.275-.745c-.331.085-.677.191-1.009.28A14.409,14.409,0,0,1,5.78,44.74a2.724,2.724,0,0,0,.529-.205,1.948,1.948,0,0,1,1.026-.424,16.237,16.237,0,0,1,4.932-2.388,4.433,4.433,0,0,1,1.652-.9l.027-.018H13.41a12.309,12.309,0,0,1,1.248-.41c-.14-.085-.29-.164-.434-.25,2.075-1.36,4.021-3.187,6.2-4.138.075-.048.15-.093.226-.137A10.86,10.86,0,0,1,22.6,33.32c-.339.212-.66.428-1,.64a9.952,9.952,0,0,1,1.768-1.912c1.9-1.546,4.464-2.76,6.249-2.654,3.529-3.177,7.086-6.334,10.5-9.621.174-.171.407-.239.53-.16s.071.3-.1.472c-2.281,2.562-4.748,4.983-7.241,7.388,2.36-1.676,4.724-3.372,7.015-5.25l.828-.776a5.409,5.409,0,0,1,.9-.667c2.89-2.432,5.677-4.686,8.4-7.438C52.787,10.99,54.777,8.873,57,6.428,59.039,4.174,60.947,2.035,63,0V2.454A162.4,162.4,0,0,1,46.969,17.96c-.831.678-1.645,1.341-2.462,2a.407.407,0,0,1,.112.092.721.721,0,0,1,.137.585q1.406-1.1,2.891-2.141a55.794,55.794,0,0,1,7.438-7.084A62.459,62.459,0,0,1,61,7.676q1-.992,2-2V9.738q-.773.637-1.549,1.272Q59,13.416,56.512,15.774a1.7,1.7,0,0,1,1.009.171c.267-.232.53-.468.793-.7q2.271-2.54,4.686-5v.369q-1.488,1.515-2.921,3.069Q61.533,12.4,63,11.135v5.332q-.836.8-1.683,1.589c-.845,1.5-1.689,3.01-2.562,4.528.164-.126.328-.256.492-.386A32.45,32.45,0,0,0,63,18.386v.483c-.712.854-1.4,1.7-2.045,2.576.708-.647,1.385-1.316,2.045-2v1.459q-.631.686-1.258,1.372a.6.6,0,0,1,.048.317,1.774,1.774,0,0,1-.821,1.215l-.376.215c-1.454,1.006-2.88,2.035-4.337,3.023a4.208,4.208,0,0,1-.776.981c-.92,1.256-1.854,2.5-2.866,3.711a.371.371,0,0,1,.3.116c.14.216-.011.582-.336.855-.157.141-.314.28-.475.417.5-.342,1.009-.684,1.519-1.019a.839.839,0,0,1,.212-.123c.517-.425,1.026-.859,1.532-1.32A88.226,88.226,0,0,0,63,22.693v3.029c-.39.6-.811,1.2-1.275,1.8-2.958,3.813-5.979,7.463-9.255,11.085-3.865,3.263-7.046,6.755-10.7,10.428-4.921,4.977-9.884,9.3-15.056,13.749a6.333,6.333,0,0,1-4.131,1.984Zm-11.5-3.082.075.014L10.6,60.213ZM4.487,55.627h.249a.756.756,0,0,0-.126-.011A.748.748,0,0,0,4.487,55.627Zm5.154-.77L9.221,54.8Zm1.316-6.04c-.824.506-1.68,1.114-2.521,1.532a6.375,6.375,0,0,1,1.713-.1,5.019,5.019,0,0,1,.8-.78q1.206-.939,2.433-1.762c-.229-.071-.034-.205.041-.3s.171-.181.253-.273C12.788,47.7,11.889,48.26,10.958,48.817Zm1.614-5.448c-.127.051-.253.1-.38.16a42.635,42.635,0,0,1-5.062,2.856,11.284,11.284,0,0,1-.6,1.173A23.247,23.247,0,0,1,10.3,45.325c.808-.523,1.6-1.067,2.4-1.611h-.179c.229-.116.455-.235.685-.349a.441.441,0,0,0,.064-.048ZM1.665,55.281a1.261,1.261,0,0,1,.619-.308c.12.116.082.294-.222.362l-.432.1C1.638,55.411,1.645,55.366,1.665,55.281Zm1.71-2.438ZM40.9,19.223c-.03-.062.014-.175.113-.254,3.058-2.264,6.063-4.576,9.06-6.933.093-.075.205-.092.247-.034s0,.171-.106.25c-2.986,2.363-6.006,4.692-9.067,6.95a.329.329,0,0,1-.164.058A.088.088,0,0,1,40.9,19.223Z" transform="translate(312.5 3.871)" fill="#ede6df"/>
  <path id="Subtraction_8" data-name="Subtraction 8" d="M48.576,139.881H0a20.942,20.942,0,0,1,5.94-4.145,9.538,9.538,0,0,1,2.911-2.469l.049-.043L8.408,133a2.186,2.186,0,0,1,1-.555,2.084,2.084,0,0,0,.782-.374c0-.162,0-.322,0-.477,0-.186-.006-.377,0-.574,1.391-1.354,2.879-2.935,4.318-4.464a61.137,61.137,0,0,1,7.783-7.444c.143-.141.275-.257.419-.383a84.539,84.539,0,0,1,5.751-8.124c-.337.321-.676.648-1,.965-.3.286-.6.58-.9.869a62.2,62.2,0,0,1,4.593-5.955,40.836,40.836,0,0,1,5.2-4.966c1.663-1.285,3.015-1.965,3.909-1.965a1.2,1.2,0,0,1,.734.218l2.967-3.5.609-.718c6.861-8.1,13.953-16.472,20.984-25.078.261-.326.5-.52.627-.52a.092.092,0,0,1,.069.027.2.2,0,0,1,.038.146,3.866,3.866,0,0,1-.825,1.6C59.159,80.031,52.8,87.869,47.34,94.563c4.814-4.938,9.552-9.835,14.578-15.464l1.966-2.377a19.159,19.159,0,0,1,1.86-1.954q1.364-1.552,2.708-3.076c5.518-6.261,10.731-12.175,16.538-19.473,5.486-6.871,10.491-13.287,16.738-21.456l1.431-1.877.024-.032c7.559-9.915,14.7-19.28,22-27.624C125.806.46,126.369,0,126.689,0a.224.224,0,0,1,.173.071.578.578,0,0,1,.081.44,10.05,10.05,0,0,1-2.091,4.02c-2.309,2.976-4.641,5.991-6.9,8.907C103.771,31.782,89.1,50.75,74.622,66.93,72.9,68.851,71.065,70.9,69.264,72.9a2.243,2.243,0,0,1-.04.372,9.41,9.41,0,0,1-.782,2.092c1.99-2.165,4-4.28,5.968-6.289,5.835-7.56,11.868-15.378,17.816-21.691,3.589-3.793,6.806-6.677,9.918-9.465l1.3-1.163c1.967-2.439,3.972-4.947,5.911-7.372l0-.005c3.007-3.762,6.116-7.65,9.179-11.4.144-.215.276-.338.363-.338a.075.075,0,0,1,.062.031,1.406,1.406,0,0,1-.333.747c-3.155,4.462-6.552,9.083-11.013,14.986a.4.4,0,0,1,.316.162,1.736,1.736,0,0,1,.026,1.315,15.4,15.4,0,0,1-1.62,3.71l.559-.623c.587-.654,1.194-1.33,1.808-2.022.256-.28.473-.44.6-.44a.1.1,0,0,1,.079.035c.04.05.044.149.011.3a5.244,5.244,0,0,1-1.048,1.875c-3.12,3.516-6.284,7.071-9.673,10.868-3.976,4.924-7.988,9.841-11.923,14.614h.043c.368,0,.581.349.617,1.01.424-.494.852-1,1.266-1.481l.023-.027.528-.619c12.723-16.769,23.958-30.5,34.349-41.977.118-.137.219-.216.279-.216a.046.046,0,0,1,.037.016.174.174,0,0,1,.01.133,2.006,2.006,0,0,1-.444.8c-3.384,3.74-6.835,7.689-10.259,11.737l.009,0,.016,0a.041.041,0,0,1,.037.021c.033.056,0,.234-.151.507a1.6,1.6,0,0,1-.538.622l-.02,0a.041.041,0,0,1-.037-.02c-.037-.063.025-.269.153-.5-6.118,7.245-12.647,15.371-19.4,24.156,5.6-6.558,11.579-13.482,17.312-19.7l.47-.682c.522-.757,1.06-1.537,1.593-2.3.138-.187.26-.29.344-.29a.084.084,0,0,1,.07.036,1.774,1.774,0,0,1-.351.754c-.119.162-.241.336-.359.5-.071.1-.143.2-.215.305.532-.571.976-.885,1.248-.885a.239.239,0,0,1,.2.088.993.993,0,0,1,.033.763,12.3,12.3,0,0,1-2.546,4.461c-2.872,3.438-5.874,6.961-9.176,10.772-.254.329-.508.662-.76.991l-.258.337c-.309.469-.613.934-.919,1.4l-.178.272c4.162-4.433,8.532-9.027,13.751-14.458.213-.246.4-.387.512-.387a.088.088,0,0,1,.071.031.29.29,0,0,1,.021.225,4.288,4.288,0,0,1-.871,1.58C105.106,51.655,96.717,62.1,87.6,73.1l-1.835,2.891c-2.464,3.882-5.011,7.9-7.555,11.875.328-.352.684-.741,1.055-1.157,5.074-5.789,10.119-12.757,15-19.5,3.87-5.345,7.871-10.873,11.861-15.774.114-.167.22-.263.29-.263.04,0,.067.032.078.093a1.944,1.944,0,0,1-.434.814c-2.862,3.6-5.6,7.376-8.49,11.369-1.54,2.125-3.132,4.321-4.733,6.472L91.53,71.689c-3.286,4.426-6.389,8.607-9.535,13.1,4-4.768,8.086-10.1,12.038-15.264,2.789-3.642,5.672-7.406,8.5-10.946.28-.393.535-.626.718-.657a2.182,2.182,0,0,1,.225-.477c.984-1.552,1.969-3.012,2.928-4.34.155-.237.3-.372.389-.372a.076.076,0,0,1,.06.028c.061.05-.064.357-.3.729-.913,1.241-1.851,2.635-2.789,4.142a1.359,1.359,0,0,1-.419.463,3.414,3.414,0,0,1-.625,1.348c-5.737,8.349-11.662,16.042-17.392,23.481-1.281,1.663-2.606,3.383-3.913,5.09a8.775,8.775,0,0,1-.453,1.139,15,15,0,0,1-2.639,3.9l-.678.6c-1.176,1.185-2.371,2.4-3.526,3.582-1.689,1.722-3.435,3.5-5.139,5.2a31.166,31.166,0,0,1-2.24,3.116c-2.636,3.785-5.476,7.832-8.384,11.774a.1.1,0,0,1,.074.044.721.721,0,0,1,.022.486,8.206,8.206,0,0,1-1.637,2.848c-.284.336-.57.669-.846.991l0,0-.237.277c1.061-1.063,2.064-2.056,2.978-2.951a2.324,2.324,0,0,1,.385-.341c1.215-1.362,2.344-2.663,3.451-3.976C73.055,102.2,83.439,88.079,93.1,74.68c.2-.322.4-.521.522-.532.034.022.027.126-.016.259a1.316,1.316,0,0,1-.188.375c-2.2,3.45-4.376,6.984-6.48,10.4C82.609,92.2,78.139,99.466,73.257,106.3c-8.788,12.318-16.861,23.3-24.68,33.58ZM67.15,69.031a.053.053,0,0,1-.022,0c-.037-.016-.042-.075-.014-.17a2.6,2.6,0,0,1,.5-.834c5.852-6.165,12.087-12.869,19.06-20.5.1-.115.188-.181.241-.181a.043.043,0,0,1,.035.016.176.176,0,0,1,0,.137,2.334,2.334,0,0,1-.486.831c-7.032,7.723-13.278,14.449-19.1,20.561A.419.419,0,0,1,67.15,69.031ZM111.259,35.6a.06.06,0,0,1-.022,0,.047.047,0,0,1-.025-.03.9.9,0,0,1,.167-.5,1.368,1.368,0,0,1,.52-.582.057.057,0,0,1,.025-.007.028.028,0,0,1,.023.011.192.192,0,0,1,.007.137,1.275,1.275,0,0,1-.152.386,1.326,1.326,0,0,1-.518.582Z" transform="translate(116.551 527.119)" fill="#ede6df"/>
  <path id="Intersection_1" data-name="Intersection 1" d="M10.194,42.449a2.27,2.27,0,0,1-.424-2.722c-.16.134-.325.26-.489.39l-.872.489a4.268,4.268,0,0,1-2.394.629L5.082,41.2c-1.474-.317-3.259-.126-4.645-.595L.26,40.135l-.222.014L0,40.154v-.586l.068.21.075.014L0,39.407V27.524c.786-.61,1.578-1.181,2.377-1.719-.229-.072-.034-.205.045-.3s.167-.182.249-.274C1.8,25.785.912,26.332,0,26.883v-3.93q.85-.565,1.689-1.146H1.512c.229-.116.455-.236.684-.349a.785.785,0,0,0,.068-.048l-.7.051c-.127.052-.254.1-.377.161C.8,21.9.4,22.161,0,22.4v-2.18a11.546,11.546,0,0,1,1.259-.406,4.482,4.482,0,0,1,1.651-.9l.027-.017H2.4a11.9,11.9,0,0,1,1.251-.411c-.144-.085-.294-.164-.434-.249,2.072-1.365,4.018-3.187,6.2-4.139.075-.048.151-.092.227-.137a11.03,11.03,0,0,1,1.945-2.555c-.339.216-.66.428-1,.644a9.991,9.991,0,0,1,1.771-1.915c1.9-1.546,4.463-2.757,6.248-2.65C21.375,5,24.149,2.531,26.862,0h1c-1.794,1.9-3.673,3.737-5.57,5.567,2.363-1.68,4.727-3.376,7.018-5.253L29.65,0H48.134q-.193.34-.39.681Q48,.49,48.236.29c.114-.1.227-.193.338-.29h2.5c-.113.124-.228.248-.34.372a.7.7,0,0,1,.048.322,1.8,1.8,0,0,1-.824,1.214l-.373.215c-1.453,1-2.883,2.035-4.336,3.02a4.189,4.189,0,0,1-.78.985c-.916,1.255-1.854,2.5-2.862,3.707a.367.367,0,0,1,.3.116c.144.216-.01.585-.335.855-.157.144-.314.28-.476.42.507-.345,1.009-.684,1.519-1.022a1.315,1.315,0,0,1,.212-.123c.517-.421,1.026-.854,1.532-1.316A90.316,90.316,0,0,0,52.656,0h1.5a34.482,34.482,0,0,1-3.44,5.615c-2.959,3.81-5.975,7.458-9.254,11.083-3.865,3.263-7.045,6.754-10.694,10.431-4.921,4.973-9.883,9.3-15.058,13.748a6.328,6.328,0,0,1-4.131,1.983A2.227,2.227,0,0,1,10.194,42.449Z" transform="translate(0.499)" fill="#ede6df"/>
</svg>
